<?xml version="1.0" standalone="no"?>
<!DOCTYPE svg PUBLIC "-//W3C//DTD SVG 1.1//EN" "http://www.w3.org/Graphics/SVG/1.1/DTD/svg11.dtd" >
<!--
2013-9-30: Created.
-->
<svg>
<metadata>
Created by iconfont
</metadata>
<defs>

<font id="iconfont" horiz-adv-x="1024" >
  <font-face
    font-family="iconfont"
    font-weight="500"
    font-stretch="normal"
    units-per-em="1024"
    ascent="896"
    descent="-128"
  />
    <missing-glyph />
    
    <glyph glyph-name="clock" unicode="&#58880;" d="M512 684C264.576 684 64 483.424 64 236s200.576-448 448-448 448 200.576 448 448S759.424 684 512 684zM512-124c-198.824 0-360 161.178-360 360 0 198.824 161.176 360 360 360 198.822 0 360-161.176 360-360C872 37.178 710.822-124 512-124zM934.784 524.826C950.826 552.878 960 585.368 960 620c0 106.04-85.96 192-192 192-61.818 0-116.802-29.222-151.92-74.596C747.964 710.168 861.286 632.206 934.784 524.826zM407.92 737.404C372.804 782.778 317.818 812 256 812 149.96 812 64 726.04 64 620c0-34.632 9.174-67.122 25.216-95.174C162.716 632.206 276.038 710.168 407.92 737.404zM448 492l64 0 0-320-64 0L448 492zM512 236l192 0 0-64-192 0L512 236z"  horiz-adv-x="1024" />

    
    <glyph glyph-name="plus" unicode="&#59059;" d="M512 810.65984q17.67424 0 30.16704-12.4928t12.4928-30.16704l0-341.34016 341.34016 0q17.67424 0 30.16704-12.4928t12.4928-30.16704-12.4928-30.16704-30.16704-12.4928l-341.34016 0 0-341.34016q0-17.67424-12.4928-30.16704t-30.16704-12.4928-30.16704 12.4928-12.4928 30.16704l0 341.34016-341.34016 0q-17.67424 0-30.16704 12.4928t-12.4928 30.16704 12.4928 30.16704 30.16704 12.4928l341.34016 0 0 341.34016q0 17.67424 12.4928 30.16704t30.16704 12.4928z"  horiz-adv-x="1024" />

    
    <glyph glyph-name="option" unicode="&#58920;" d="M831.84 285.82399999999996l-42.368 0c-6.88-24.928-16.736-48.576-29.376-70.496l39.168-39.136c25.056-25.056 25.056-65.696 0-90.752l-22.688-22.688c-25.056-25.056-65.696-25.056-90.752 0l-39.424 39.392c-21.856-12.448-45.408-22.144-70.208-28.896l0-41.088c0-35.424-28.704-64.16-64.16-64.16l-32.064 0c-35.424 0-64.192 28.704-64.192 64.16l0 41.088c-24.768 6.752-48.352 16.48-70.208 28.896l-39.392-39.392c-25.024-25.056-65.664-25.056-90.72 0l-22.72 22.688c-25.056 25.056-25.056 65.696 0 90.752l39.168 39.136c-12.64 21.952-22.496 45.568-29.408 70.496l-42.336 0c-35.456 0-64.16 28.704-64.16 64.128l0 32.096c0 35.424 28.704 64.16 64.16 64.16l41.856 0c6.624 24.672 16.096 48.16 28.384 69.952l-37.664 37.632c-25.056 25.056-25.056 65.696 0 90.752l22.688 22.656c25.056 25.056 65.696 25.056 90.72 0l36.896-36.896c22.592 13.152 46.976 23.392 72.704 30.4l0 43.136c0.032 35.456 28.8 64.16 64.224 64.16l32.064 0c35.424 0 64.16-28.704 64.16-64.16l0-43.104c25.792-7.04 50.144-17.28 72.704-30.432l36.896 36.896c25.056 25.056 65.696 25.056 90.752 0l22.688-22.656c25.056-25.056 25.056-65.696 0-90.752l-37.632-37.632c12.288-21.792 21.76-45.28 28.416-69.984l41.856 0c35.424 0 64.16-28.736 64.16-64.16l0-32.096c-0.032-35.392-28.736-64.096-64.192-64.096zM496 541.44c-97.44 0-176.448-79.008-176.448-176.448s79.008-176.448 176.448-176.448 176.448 79.008 176.448 176.448-79.008 176.448-176.448 176.448zM496 286.81600000000003c-44.288 0-80.224 35.872-80.224 80.192 0 44.288 35.936 80.192 80.224 80.192s80.192-35.904 80.192-80.192c0-44.32-35.904-80.192-80.192-80.192z"  horiz-adv-x="1024" />

    
    <glyph glyph-name="close" unicode="&#58907;" d="M886.528-12.032000000000039c-28.096-28.096-73.856-28.096-102.016 0L138.304 634.1759999999999c-28.096 28.16-28.16 73.856 0 102.016 28.032 28.16 73.792 28.16 102.08 0l646.144-646.144C914.624 61.75999999999999 914.752 16.128000000000043 886.528-12.032000000000039L886.528-12.032000000000039zM885.76 634.496L239.616-11.648000000000025c-28.224-28.224-73.92-28.224-102.08 0-28.16 28.096-28.16 73.728 0.064 102.016L783.744 736.448c28.224 28.16 73.984 28.16 102.016 0.064C913.984 708.352 913.856 662.656 885.76 634.496L885.76 634.496z"  horiz-adv-x="1024" />

    
    <glyph glyph-name="position" unicode="&#59332;" d="M511.999488 831.696462c-156.537196 0-283.434328-126.898155-283.434328-283.434328 0-47.625694 11.888771-92.422969 32.636305-131.838677l-0.103354-0.051165 250.9024-480.068753 247.800759 474.532667c22.654976 40.71019 35.633568 87.534636 35.633568 137.425929C795.433816 704.798307 668.536684 831.696462 511.999488 831.696462zM511.999488 450.199725c-48.136324 0-87.176478 39.040155-87.176478 87.211271 0 48.136324 39.040155 87.176478 87.176478 87.176478 48.170093 0 87.211271-39.040155 87.211271-87.176478C599.209736 489.240903 560.169581 450.199725 511.999488 450.199725z"  horiz-adv-x="1024" />

    
    <glyph glyph-name="setting" unicode="&#58919;" d="M929.482906 490.433043l-69.315947-40.370343c3.90717-21.192665 6.444068-42.848909 6.444068-65.175451 0-22.326542-2.536898-43.98688-6.444068-65.177498l69.315947-40.370343c28.334661-16.46988 38.040163-52.992407 21.685922-81.530716l-59.205197-103.419262c-16.352194-28.538309-52.553387-38.329772-80.887025-21.832262l-70.013875 40.778661c-32.707458-28.098266-69.92996-51.039845-111.262257-65.816072l0-50.66018c0-32.969437-26.497738-59.696407-59.20315-59.696407L452.19614-62.836828999999966c-32.705412 0-59.230781 26.72697-59.230781 59.696407l0 50.66018c-41.334343 14.776227-78.525121 37.717806-111.231556 65.816072l-70.043553-40.778661c-28.303961-16.497511-64.5072-6.706047-80.887025 21.832262L71.630777 197.80869299999995c-16.382895 28.538309-6.645669 65.060836 21.657268 81.530716l69.3139 40.370343c-3.875446 21.190618-6.442022 42.850956-6.442022 65.177498 0 22.325519 2.566575 43.982787 6.442022 65.175451l-69.3139 40.370343c-28.302937 16.46988-38.040163 52.991383-21.657268 81.528669l59.171426 103.423355c16.379825 28.535239 52.583065 38.329772 80.887025 21.830215l70.043553-40.746937c32.706435 28.070635 69.900283 51.039845 111.231556 65.788441l0 50.66018c0 32.969437 26.525369 59.698454 59.230781 59.698454l118.40323 0c32.705412 0 59.20315-26.729017 59.20315-59.698454l0-50.66018c41.332297-14.748596 78.554798-37.717806 111.262257-65.788441l70.013875 40.746937c28.334661 16.499557 64.536878 6.705024 80.887025-21.830215l59.205197-103.423355C967.523068 543.42545 957.817567 506.9019 929.482906 490.433043zM885.118407 567.969603l-29.614879 51.709119c-8.161258 14.28297-26.288974 19.150047-40.458351 10.931481l-82.230691-47.892004c-41.767223 47.481639-98.174566 81.558346-162.212046 94.64399l0 65.702479c0 16.497511-13.261661 29.849227-29.613855 29.849227l-59.202127 0c-16.352194 0-29.587248-13.35274-29.587248-29.849227l0-65.702479c-64.067158-13.085644-120.474501-47.162352-162.21614-94.64399l-82.256275 47.892004c-14.135607 8.218566-32.269462 3.351489-40.430721-10.931481l-29.613855-51.709119c-8.165352-14.255339-3.324881-32.531441 10.845519-40.780708L231.107394 479.123944c-9.826257-29.702887-15.712597-61.21302-15.712597-94.238742 0-33.027769 5.888386-64.537901 15.712597-94.238742L148.529786 242.57844c-14.170401-8.249267-19.005754-26.497738-10.845519-40.778661l29.613855-51.709119c8.163305-14.285016 26.293067-19.152094 40.430721-10.902827l82.228644 47.86335c41.769269-47.483685 98.176613-81.530716 162.24377-94.646037l0-65.700433c0-16.46988 13.236077-29.849227 29.587248-29.849227l59.202127 0c16.352194 0 29.613855 13.379347 29.613855 29.849227l0 65.700433c64.039527 13.115321 120.439707 47.162352 162.212046 94.646037l82.230691-47.86335c14.169377-8.249267 32.300163-3.382189 40.458351 10.902827l29.614879 51.709119c8.163305 14.280923 3.294181 32.529394-10.845519 40.778661l-82.608309 48.068021c9.851841 29.70084 15.742274 61.210973 15.742274 94.238742 0 33.024698-5.890433 64.535854-15.742274 94.238742l82.608309 48.065974C888.410541 535.4381619999999 893.281713 553.715287 885.118407 567.969603zM511.402361 235.64009099999998c-81.761994 0-148.022202 66.80975-148.022202 149.244088 0 82.432292 66.258161 149.239995 148.022202 149.239995 81.732317 0 147.986385-66.807703 147.986385-149.239995C659.388745 302.449841 593.134677 235.64009099999998 511.402361 235.64009099999998zM511.402361 474.42879c-49.058629 0-88.815982-40.078686-88.815982-89.543588 0-49.464901 39.757353-89.545634 88.815982-89.545634 49.055559 0 88.815982 40.080733 88.815982 89.545634C600.218342 434.350103 560.456896 474.42879 511.402361 474.42879z"  horiz-adv-x="1025" />

    
    <glyph glyph-name="write" unicode="&#58894;" d="M949.570847 683.326273l-41.801035-41.517579L768.565377 780.156622l41.801035 41.459251c15.340383 15.283078 39.522132 16.084327 53.892421 1.768273l87.024006-86.454024C965.710432 722.6171380000001 964.91123 698.606281 949.570847 683.326273L949.570847 683.326273zM580.373227 316.40550900000005L441.169815 454.755484l306.238706 304.299541 139.205459-138.348951L580.373227 316.40550900000005 580.373227 316.40550900000005zM560.984644 297.13051399999995l-194.863083-55.314817 55.659671 193.666838L560.984644 297.13051399999995 560.984644 297.13051399999995zM236.551554 717.8812760000001c-48.13223 0-87.081311-38.949081-87.081311-87.024006l0-522.372232c0-48.062646 38.962384-87.026052 87.026052-87.026052l522.485819 0c48.063669 0 87.028099 38.963407 87.028099 87.028099L846.010213 456.751954l87.079264 87.028099 0-464.321094c0-80.124875-64.954361-145.078213-145.078213-145.078213L207.468169-65.61925399999996c-80.124875 0-145.078213 64.954361-145.078213 145.078213L62.389956 659.885398c0 80.124875 64.954361 145.078213 145.078213 145.078213l464.435705 0-87.083357-87.083357L236.551554 717.880253 236.551554 717.8812760000001z"  horiz-adv-x="1024" />

    
    <glyph glyph-name="flag" unicode="&#58958;" d="M0.002763 722.823369C1.156583 640.835909 102.72775 568.790383 155.654932 558.9646740000001 155.654932 601.230078 155.423157 618.40693 155.383198 618.40693 155.343238 618.40693 58.445402 645.209894 58.01328 719.840733 57.620441 787.866382 69.389894 849.748031 159.102507 849.748031 237.670283 849.748031 264.366025 800.012579 288.07778 739.999144L351.434835 740.0108700000001C318.605288 824.00232 274.333935 896 152.553883 896 33.394067 896-0.352144 804.810831 0.002763 722.823369ZM537.799182 740.173913L289.394067 740.173913 345.402415 590.586136 333.915807 562.594199C333.915804 545.815452 336.704962 540.9260449999999 333.915807 532.8708409999999 341.39153 506.414901 365.28399 490.898566 391.136717 490.898566 421.463878 490.898566 447.348031 512.984917 447.32839 547.116947 447.316605 562.61374 430.110262 594.6274189999999 403.7822 599.938932L383.71599 652.82345C461.592369 641.309313 496.716093 593.228215 495.682928 545.81545 494.327633 483.671939 456.355827 440.030778 390.264614 440.339543 332.053749 440.613129 289.64564 476.244565 289.39407 539.8260869999999 289.32462 557.3785290000001 288.12258 570.446169 295.064042 591.825099 300.74842 610.651848 266.748216 692.036397 266.748216 692.036397L247.825168 740.173913 200.212002 740.173913 200.212002 413.453679C199.214192 386.118351 237.91777 352.65465700000004 237.91777 352.65465700000004L716.159816-121.96543399999996 1065.055736 231.040977C1065.051807 231.03315899999996 639.733015 654.640856 592.678772 701.729221 559.354251 735.063939 537.799182 740.173913 537.799182 740.173913ZM155.82885 406.26087L155.82885 517.5652170000001 89.046241 517.5652170000001 89.046241 320.43206599999996C89.046241 279.038232 133.371561 250.64549499999998 133.371561 250.64549499999998L509.047305-125.90119200000004 569.94126-64.44164899999998C569.94126-64.43773999999996 245.106722 261.116091 196.092216 309.13856599999997 147.907654 354.56793400000004 155.82885 406.26087 155.82885 406.26087Z"  horiz-adv-x="1069" />

    
    <glyph glyph-name="transpond" unicode="&#58925;" d="M1009.462108 502.453109L692.222089 256.127974C682.598414 246.50429899999995 666.558955 256.127974 666.558955 268.89128800000003L666.558955 432.08425C416.61641 432.08425 320.516163 355.29960700000004 189.129108 134.56935299999998 189.129108 134.56935299999998 205.168566 640.05119 666.558955 640.05119L666.558955 790.412584C666.558955 803.244151 682.598414 812.799573 692.222089 803.244151L1009.462108 556.8507629999999C1028.641205 544.087449 1028.641205 515.284676 1009.462108 502.453109ZM336.555622 851.226021L89.820969 851.226021C64.157835 851.226021 44.910485 832.046924 44.910485 806.452043L44.910485-41.386923000000024C44.910485-66.98180400000001 64.157835-86.229154 89.820969-86.229154L890.906619-86.229154C916.5015-86.229154 935.74885-66.98180400000001 935.74885-41.386923000000024L935.74885 137.777245C935.74885 150.54055900000003 945.372525 160.16423399999996 958.204093 160.16423399999996 970.967407 160.16423399999996 980.591082 153.74845000000005 980.591082 140.91688299999998L980.591082-38.247284000000036C980.591082-86.229154 938.956742-127.79524100000003 890.906619-127.79524100000003L89.820969-127.79524100000003C41.702593-127.79524100000003 0.068253-86.229154 0.068253-38.247284000000036L0.068253 806.452043C0.068253 854.433913 41.702593 896 89.820969 896L333.34773 896C349.318936 896 358.942611 886.376325 358.942611 873.613011 358.942611 860.781444 349.318936 851.226021 336.555622 851.226021Z"  horiz-adv-x="1024" />

    
    <glyph glyph-name="options" unicode="&#59002;" d="M541.997208 778.842492m-100.711276 0a100.024 100.024 0 1 1 201.422552 0 100.024 100.024 0 1 1-201.422552 0ZM541.994187 376.00141599999995m-100.711276 0a100.024 100.024 0 1 1 201.422552 0 100.024 100.024 0 1 1-201.422552 0ZM642.705463-26.840667000000053c0-55.624594-45.089702-100.710269-100.711276-100.710269s-100.711276 45.085675-100.711276 100.710269c0 55.621574 45.089702 100.710269 100.711276 100.710269S642.705463 28.780906999999956 642.705463-26.840667000000053z"  horiz-adv-x="1024" />

    
    <glyph glyph-name="direction-short-right" unicode="&#58943;" d="M794.01856 394.34112c-1.12896 2.33728-2.63936 4.53504-4.57728 6.47424L339.66336 850.59072c-9.2864 9.2864-24.34176 9.2864-33.62816 0l-71.45984-71.45856c-9.28512-9.2864-9.28512-24.34176 0-33.62816L596.08064 384 234.57536 22.49599999999998c-9.2864-9.2864-9.2864-24.34432 0-33.62944l71.45856-71.45856c9.2864-9.2864 24.34176-9.28512 33.62816 0.00128L717.9776 295.72352c0.00128 0.00128 0.00128 0.00256 0.00256 0.00256l71.45856 71.45856c0.58112 0.58112 1.12512 1.184 1.63328 1.80736C796.99456 376.25088000000005 797.95968 386.18496 794.01856 394.34112L794.01856 394.34112z"  horiz-adv-x="1024" />

    
    <glyph glyph-name="direction-short-left" unicode="&#58944;" d="M229.98144 394.34112c1.12896 2.33728 2.63936 4.53504 4.57728 6.47424L684.33664 850.59072c9.28768 9.2864 24.34304 9.2864 33.62816 0l71.45984-71.45856c9.28512-9.2864 9.28512-24.34176 0-33.62816L427.92064 384l361.50528-361.504c9.2864-9.2864 9.2864-24.34432 0-33.62944l-71.45856-71.45856c-9.2864-9.2864-24.34176-9.28512-33.62816 0.00128L306.0224 295.72352c-0.00128 0.00128-0.00128 0.00256-0.00256 0.00256l-71.45856 71.45856c-0.58112 0.58112-1.12512 1.184-1.63328 1.80736C227.00544 376.25088000000005 226.04032 386.18496 229.98144 394.34112L229.98144 394.34112z"  horiz-adv-x="1024" />

    
    <glyph glyph-name="right" unicode="&#58947;" d="M1004.50304 629.17376l-587.072-594.16064-17.1904-16.19328-17.1904 16.19328L19.49696 402.96192l118.53696 119.9872 262.17856-265.37984 485.7536 491.6096L1004.50304 629.17376 1004.50304 629.17376zM1004.50304 629.17376"  horiz-adv-x="1024" />

    
    <glyph glyph-name="publish" unicode="&#58927;" d="M817.657468 120.241804L454.710202 231.92032600000005l362.949312 418.788062-474.627834-418.788062L63.836911 343.596801 957.255877 818.224636 817.657468 120.241804 817.657468 120.241804zM454.710202-47.27546700000005L454.710202 148.160667l111.673405-55.838749L454.710202-47.27546700000005 454.710202-47.27546700000005z"  horiz-adv-x="1024" />

    
    <glyph glyph-name="email" unicode="&#58983;" d="M153.236734 732.888578l714.763665 0c48.810633 0 88.718697-38.475467 89.332667-85.853503l-446.458679-242.518237L64.313381 646.830419C64.722694 694.310782 104.323773 732.888578 153.236734 732.888578L153.236734 732.888578zM64.313381 554.018587l-0.409313-429.062856c0-47.787349 40.215049-86.876786 89.332667-86.876786l714.763665 0c49.117618 0 89.332667 39.089437 89.332667 86.876786L957.333067 554.223244 521.311882 322.96112700000003c-6.651344-3.581493-14.735285-3.581493-21.386629 0L64.313381 554.018587 64.313381 554.018587zM64.313381 554.018587"  horiz-adv-x="1024" />

    
    <glyph glyph-name="phone-2" unicode="&#58901;" d="M761.503029 893.09381L242.121921 893.09381c-32.405037 0-58.932204-26.060539-58.932204-58.527998l0-902.302287c0-32.156374 26.217105-58.216913 58.932204-58.216913l519.381108 0c32.344662 0 58.591443 26.060539 58.591443 58.216913L820.094472 834.876897C820.094472 867.033271 793.847691 893.09381 761.503029 893.09381M452.878996 834.876897l98.147344 0c6.780427 0 12.31549-5.536087 12.31549-12.253068 0-6.748704-5.535063-12.253068-12.31549-12.253068l-98.147344 0c-6.779404 0-12.345166 5.504364-12.345166 12.253068C440.532807 829.340811 446.099592 834.876897 452.878996 834.876897M501.641583-84.59339799999998c-29.636994 0-53.987588 23.946388-53.987588 53.677527 0 29.356608 24.039509 53.614082 53.987588 53.614082 29.91738 0 53.987588-23.883967 53.987588-53.614082C555.629171-60.647009000000025 531.559986-84.59339799999998 501.641583-84.59339799999998M766.35657 92.85710700000004c0-16.23373-13.186324-29.107945-29.233811-29.107945l-470.618521 0c-16.35755 0-29.325909 13.186324-29.325909 29.107945L237.178329 732.499206c0 16.232706 13.279445 29.138644 29.325909 29.138644l470.246037 0c16.420995 0 29.357632-13.1853 29.357632-29.138644l0-639.642099L766.35657 92.85710700000004zM766.35657 92.85710700000004"  horiz-adv-x="1024" />

    
    <glyph glyph-name="novel" unicode="&#58893;" d="M671.288889 77.61919999999998c-46.648889 0-124.404622-13.744356-136.533333-45.4656l0-0.705422c-27.0336-0.705422-33.427911 0-45.511111 0-12.105956 31.766756-89.884444 45.511111-136.533333 45.511111l-250.311111 0 0 659.911111 272.156444 0c58.732089 0 109.522489-30.173867 137.4208-74.706489 27.898311 44.532622 78.711467 74.706489 137.466311 74.706489L921.6 736.8704l0-659.2512L671.288889 77.61919999999998zM489.244444 600.3370669999999c0 53.202489-57.457778 91.022222-113.777778 91.022222l-227.555556 0 0-568.888889c0 0 162.178844 0 204.8 0 45.147022 0.796444 116.349156-0.477867 136.533333-33.723733l0 25.486222c-0.864711 31.493689-0.045511 74.501689 0 76.276622L489.244444 585.659733c0 0.022756 0 0.022756 0 0.045511L489.244444 600.3370669999999zM876.088889 691.4048l-227.555556 0c-56.32 0-113.777778-37.796978-113.777778-90.9312l0-14.904889c0-0.022756 0-0.022756 0-0.045511l0-394.467556c0.045511-1.752178 0.864711-44.760178 0-76.1856l0-25.463467c20.184178 33.200356 91.386311 34.497422 136.533333 33.678222 42.621156 0 204.8 0 204.8 0L876.088889 691.4048z"  horiz-adv-x="1024" />

    
    <glyph glyph-name="phone" unicode="&#58918;" d="M768-128L256-128C204.567273-128 162.909091-86.34181799999999 162.909091-34.90909099999999L162.909091 104.72727299999997 162.909091 151.27272700000003 162.909091 197.81818199999998 162.909091 802.909091C162.909091 854.341818 204.567273 896 256 896L768 896C819.432727 896 861.090909 854.341818 861.090909 802.909091L861.090909 197.81818199999998 861.090909 151.27272700000003 861.090909 104.72727299999997 861.090909-34.90909099999999C861.090909-86.34181799999999 819.432727-128 768-128ZM814.545455 802.909091C814.545455 828.602182 793.693091 849.454545 768 849.454545L256 849.454545C230.306909 849.454545 209.454545 828.602182 209.454545 802.909091L209.454545 197.81818199999998 814.545455 197.81818199999998 814.545455 802.909091ZM814.545455 151.27272700000003L209.454545 151.27272700000003 209.454545-34.90909099999999C209.454545-60.60218199999997 230.306909-81.45454500000005 256-81.45454500000005L768-81.45454500000005C793.693091-81.45454500000005 814.545455-60.60218199999997 814.545455-34.90909099999999L814.545455 151.27272700000003ZM512-34.90909099999999C473.460364-34.90909099999999 442.181818-3.6305449999999837 442.181818 34.90909099999999 442.181818 73.44872699999996 473.460364 104.72727299999997 512 104.72727299999997 550.539636 104.72727299999997 581.818182 73.44872699999996 581.818182 34.90909099999999 581.818182-3.6305449999999837 550.539636-34.90909099999999 512-34.90909099999999Z"  horiz-adv-x="1024" />

    
    <glyph glyph-name="role" unicode="&#58957;" d="M583.998674 414.452444c57.999258 26.399662 94.898785 83.59893 94.898785 147.098117 0 89.798851-68.399124 154.398024-158.397972 154.398024s-158.997965-65.199165-158.997965-154.898017c0-65.59916 38.099512-119.49847 98.698737-145.098143 26.399662-11.299855 80.098975-16.699786 123.798415-1.499981z m-137.398241-56.299279c-3.299958 1.099986-6.99991 1.799977-10.299869 3.199959-80.298972 33.799567-136.498253 112.298563-136.498252 199.19745 0 118.998477 92.398817 219.697188 220.397179 219.697188 130.698327 0 220.397179-100.398715 220.397178-219.297193 0-84.198922-53.399316-161.997926-130.198333-197.097477-59.699236-25.999667-119.198474-20.499738-163.797903-5.699927z m-244.196875-388.795024c-28.89963 0.099999-58.899246 13.099832-74.099051 36.999527-14.699812 23.099704-12.899835 55.49929-1.299983 80.198973 40.299484 85.998899 145.798134 230.797046 399.99488 234.696996 261.396654 4.799939 356.495437-150.298076 389.895009-242.696893 8.799887-24.299689 10.199869-46.399406-4.299945-72.899067-17.099781-27.499648-46.699402-34.199562-74.099052-34.199562h-66.299151c-14.699812 0-26.399662 14.999808-26.399662 29.699619s11.999846 27.899643 26.599659 27.899643h67.899131c10.199869 0 15.499802 0.199997 21.09973 8.099897 2.899963 4.099948 6.299919 13.199831 2.399969 23.899694-34.899553 96.498765-128.89835 201.59742-338.395668 201.597419-205.897364 0-293.096248-105.49865-338.395668-193.297526-3.89995-8.299894-4.69994-20.29974 0.299996-27.999641 5.399931-8.499891 11.499853-12.199844 22.099717-12.199844h450.79423c14.699812 0 27.699645-14.599813 27.699645-29.299625 0-14.699812-11.999846-30.399611-26.699658-30.399611"  horiz-adv-x="1024" />

    
    <glyph glyph-name="address" unicode="&#58906;" d="M501.76 865.28C337.92 865.28 204.8 732.16 204.8 565.76c0-163.84 161.28-371.2 299.52-540.16 135.68 171.52 299.52 373.76 299.52 540.16-2.56 166.4-135.68 299.52-302.08 299.52z m0-496.64c-110.08 0-197.12 89.6-197.12 197.12 0 110.08 89.6 197.12 197.12 197.12 110.08 0 197.12-89.6 197.12-197.12 2.56-110.08-87.04-197.12-197.12-197.12z m0 0M389.12 565.76c0-30.72 12.8-58.88 33.28-79.36 20.48-20.48 51.2-33.28 79.36-33.28 30.72 0 58.88 12.8 79.36 33.28 20.48 20.48 33.28 51.2 33.28 79.36 0 30.72-12.8 58.88-33.28 79.36-20.48 20.48-51.2 33.28-79.36 33.28-30.72 0-58.88-12.8-79.36-33.28-20.48-20.48-33.28-48.64-33.28-79.36z m0 0M504.32-104.96000000000004c-192 0-386.56 61.44-386.56 176.64 0 64 64 117.76 176.64 151.04 20.48 5.12 40.96-5.12 46.08-25.6 5.12-20.48-5.12-40.96-25.6-46.08-84.48-23.04-122.88-56.32-122.88-79.36 0-40.96 122.88-102.4 314.88-102.4 192 0 314.88 61.44 314.88 102.4 0 23.04-46.08 58.88-130.56 81.92-20.48 5.12-30.72 25.6-25.6 46.08 5.12 20.48 25.6 30.72 46.08 25.6 117.76-30.72 186.88-87.04 186.88-153.6-7.68-115.2-202.24-176.64-394.24-176.64z m0 0"  horiz-adv-x="1024" />

    
    <glyph glyph-name="category" unicode="&#58936;" d="M405.20192 408.39168H164.89984c-42.15808 0-77.29152 54.80448-77.29152 96.96256V725.9801600000001c0 42.15808 35.13344 77.29152 77.29152 77.29152h240.30208c42.15808 0 77.29152-35.13344 77.29152-77.29152v-238.89408c-0.00512-43.56608-35.13344-78.6944-77.29152-78.6944z m18.26816 299.32032c0 19.67616-15.45728 35.13344-35.13344 35.13344H180.35712c-18.26816 0-33.72544-15.45728-33.72544-35.13344v-207.97952c0-19.67616 15.45728-35.13344 35.13344-35.13344h207.97952c19.67616 0 35.13344 15.45728 35.13344 35.13344V707.712h-1.408z m435.63008-299.32032h-240.30208c-42.15808 0-77.29152 54.80448-77.29152 96.96256V725.9801600000001c0 42.15808 35.13344 77.29152 77.29152 77.29152h240.30208c42.15808 0 77.29152-35.13344 77.29152-77.29152v-238.89408c-0.00512-43.56608-33.73056-78.6944-77.29152-78.6944z m18.26816 299.32032c0 19.67616-15.45728 35.13344-35.13344 35.13344h-206.57152c-19.67616 0-35.13344-15.45728-35.13344-35.13344v-207.97952c0-19.67616 15.45728-35.13344 35.13344-35.13344h207.97952c19.67616 0 35.13344 15.45728 35.13344 35.13344V707.712h-1.408z m-18.26816-753.21856h-240.30208c-42.15808 0-77.29152 54.80448-77.29152 96.96256v219.22304c0 42.15808 35.13344 77.29152 77.29152 77.29152h240.30208c42.15808 0 77.29152-35.13344 77.29152-77.29152v-238.89408c-0.00512-42.1632-33.73056-77.29152-77.29152-77.29152z m18.26816 299.32032c0 19.67616-15.45728 35.13344-35.13344 35.13344h-206.57152c-19.67616 0-35.13344-15.45728-35.13344-35.13344v-207.97952c0-19.67616 15.45728-35.13344 35.13344-35.13344h207.97952c19.67616 0 35.13344 15.45728 35.13344 35.13344v207.97952h-1.408z m-472.1664-299.32032H164.89984c-42.15808 0-77.29152 54.80448-77.29152 96.96256v219.22304c0 42.15808 35.13344 77.29152 77.29152 77.29152h240.30208c42.15808 0 77.29152-35.13344 77.29152-77.29152v-238.89408c-0.00512-42.1632-35.13344-77.29152-77.29152-77.29152z m18.26816 299.32032c0 19.67616-15.45728 35.13344-35.13344 35.13344H180.35712c-19.67616 0-35.13344-15.45728-35.13344-35.13344v-207.97952c0-19.67616 15.45728-35.13344 35.13344-35.13344h207.97952c19.67616 0 35.13344 15.45728 35.13344 35.13344v207.97952z"  horiz-adv-x="1024" />

    
    <glyph glyph-name="loading" unicode="&#58921;" d="M626.34496 774.1696c0-53.15072-43.07968-96.2304-96.2304-96.2304-53.1456 0-96.2304 43.07968-96.2304 96.2304C433.88928 827.32032 476.96896 870.4 530.11456 870.4c53.1456 0 96.2304-43.0848 96.2304-96.2304zM530.11456 62.0032c-46.50496 0-84.1984-37.69856-84.1984-84.1984s37.69856-84.1984 84.1984-84.1984 84.1984 37.69856 84.1984 84.1984-37.69344 84.1984-84.1984 84.1984z m398.18752 253.83936c-33.21856 0-60.14464 26.92096-60.14464 60.14464 0 33.21856 26.92608 60.14464 60.14464 60.14464 33.22368 0 60.14464-26.92608 60.14464-60.14464-0.00512-33.21856-26.9312-60.14464-60.14464-60.14464zM228.15744 375.9872c0 53.1456-43.07968 96.2304-96.2304 96.2304-53.1456 0-96.2304-43.07968-96.2304-96.2304 0-53.1456 43.07968-96.2304 96.2304-96.2304 53.15072 0 96.2304 43.0848 96.2304 96.2304z m88.448 349.59872c37.5808-37.5808 37.5808-98.5088 0-136.08448-37.5808-37.5808-98.5088-37.5808-136.0896 0s-37.5808 98.5088 0 136.0896 98.5088 37.5808 136.0896-0.00512z m444.03712-580.12672c-28.1856-28.1856-28.1856-73.8816-0.00512-102.0672 28.1856-28.1856 73.8816-28.1856 102.0672 0 28.1856 28.1856 28.1856 73.8816 0 102.0672-28.18048 28.19072-73.87648 28.19072-102.06208 0z m85.05856 478.06464c-18.7904-18.7904-49.25952-18.7904-68.03968 0-18.79552 18.79552-18.79552 49.25952 0 68.0448a48.09728 48.09728 0 0 0 68.03968 0c18.7904-18.7904 18.7904-49.25952 0-68.0448zM316.60544 162.47296c-37.5808 37.5808-98.5088 37.5808-136.0896 0s-37.5808-98.5088 0-136.08448c37.5808-37.5808 98.5088-37.5808 136.08448 0 37.5808 37.57568 37.5808 98.50368 0.00512 136.08448z"  horiz-adv-x="1024" />

    
    <glyph glyph-name="box" unicode="&#58935;" d="M513.132 483.099l-206.26 53.956c-8.395 2.23-16.929-2.672-19.159-10.804-2.239-8.14 2.72-16.537 11.062-18.72l206.244-53.956c1.36-0.35 2.734-0.524 4.048-0.524 6.924 0 13.232 4.515 15.098 11.327 2.275 8.163-2.691 16.552-11.033 18.721zM559.274 460.631c0.58 0.798 1.070 1.648 1.788 2.336-0.733-0.672-1.221-1.537-1.788-2.336zM557.61 458.237c-0.352-0.785-0.459-1.658-0.672-2.509 0.214 0.838 0.32 1.711 0.672 2.509zM566.241 466.133c-1.13-0.412-2.047-1.096-3.024-1.74 0.978 0.627 1.895 1.315 3.024 1.74zM958.894 386.948l-97.375 166.104c-0.188 0.307-0.485 0.495-0.686 0.763l-0.033 0.050c-1.535 2.196-3.575 3.937-5.958 5.079 2.963-1.826 2.506-1.377 1.985-1.026-1.144 0.775-2.398 1.328-3.696 1.769-0.459 0.157-0.84 0.418-1.329 0.535-0.035 0.008-0.071 0.013-0.107 0.021-0.067 0.029-0.128 0.061-0.214 0.084l-369.802 84.557c-1.072 0.249-2.303 0.392-3.567 0.392-1.743 0-3.423-0.272-5-0.775l-263.684-84.522c-0.176-0.053-0.315-0.187-0.482-0.272l-0.060-0.020c-1.223-0.441-2.286-1.173-3.348-1.897-0.041-0.028-0.078-0.061-0.119-0.089-0.522-0.31-1.11-0.488-1.562-0.886l-135.622-119.15c-5.583-4.887-6.822-13.007-2.926-19.274 2.912-4.686 8.047-7.364 13.394-7.364 1.977 0.008 3.87 0.36 5.624 1l82.783 30.116c8.097 2.945 12.215 11.735 9.198 19.653-3.019 7.931-12.034 11.9-20.123 8.998l-5.868-2.144 48.384 42.503v-403.91c0-6.984 4.844-13.072 11.779-14.803l356.422-88.83c1.555-0.501 3.198-0.77 4.873-0.77 0.146 0 0.293 0.013 0.438 0.017-0.137-0.003-0.273-0.017-0.409-0.017 0.176 0 0.353 0.015 0.528 0.021 0.244 0.008 0.484 0.011 0.728 0.029l0.010 0.001h-0.001v0c0.116 0.010 0.229 0.029 0.344 0.041 1.672 0.164 3.208 0.57 4.633 1.183-1.018-0.395-0.839-0.317-0.656-0.252l266.938 88.917c6.356 2.105 10.602 7.927 10.602 14.46v225.343l0.017 0.006v0.006l95.481 32.297c4.401 1.498 7.914 4.819 9.534 9.094 0.626 1.592 0.989 3.436 0.989 5.365 0 2.8-0.765 5.421-2.097 7.665zM229.955 534.386l-7.602-2.436-23.653-20.779v0.034l23.623 20.744 7.631 2.449 0.001-0.011zM557.758 24.878zM566.671 466.362c-0.14-0.040-0.256-0.152-0.393-0.222l-0.021-0.007c-1.115-0.425-2.062-1.096-3.010-1.74-0.732-0.469-1.527-0.843-2.169-1.424-0.734-0.689-1.223-1.538-1.804-2.336-0.58-0.79-1.222-1.516-1.65-2.395-0.367-0.798-0.458-1.672-0.671-2.509-0.306-1.089-0.643-2.141-0.69-3.305v-0.085c-0.021-0.133-0.074-0.265-0.074-0.4v-414.148l-326.196 81.302v415.303l248.835 79.752 312.926-71.541-225.083-76.243zM834.703 358.083c0.441 0.129 0.887 0.239 1.337 0.33-0.797-0.166-1.568-0.401-2.316-0.679 0.194 0.073 0.386 0.151 0.583 0.216l-135.592-45.864-62.493 88.034c-4.935 6.909-14.699 8.662-21.789 3.834-7.104-4.798-8.862-14.331-3.94-21.271l69.261-97.553c2.995-4.179 7.839-6.566 12.866-6.566 1.696 0 3.435 0.255 5.117 0.834l125.905 42.605v21.468c0 3.168 0.993 6.099 2.68 8.534-1.667-2.378-2.664-5.332-2.664-8.519 0-0.005 0-0.011 0-0.016l-0-21.461-0.015-0.004v-203.834h0.015l-236.207-78.676v401.576l253.336 85.792-6.448 10.99c-2.943 5.038-2.631 11.032 0.287 15.647-2.908-4.613-3.206-10.601-0.255-15.632l6.433-10.99 12.269 4.156c6.158 2.092 10.303 7.678 10.508 13.956-0.197-6.286-4.345-11.892-10.508-13.972l-12.269-4.156 81.578-139.122-87.679-29.657zM839.296 358.751h-0.007c0 0.002 0.003 0 0.007 0zM556.936 455.729c-0.289-1.089-0.657-2.141-0.686-3.305 0.044 1.151 0.397 2.203 0.686 3.305z"  horiz-adv-x="1024" />

    
    <glyph glyph-name="verification" unicode="&#58934;" d="M512.035158-128c101.956466 34.50699 197.449829 100.585327 266.639596 196.594333 54.523271 75.553257 98.218062 169.56415 129.806988 279.706431 53.240026 185.572487 53.925595 350.894311 53.925595 357.855476 0.105472 15.791533-11.115599 28.893525-26.080932 30.44631-2.355546 0.205085-241.203216 26.286018-407.228188 153.573392a27.809505 27.809505 0 0 1-34.055804 0C329.908096 763.6210140000001 90.175631 736.813495 87.808366 736.60841c-14.965334-1.459032-26.180545-14.654777-26.180546-30.44631 0-6.961166 0.591816-172.27713 53.931455-357.849617 31.594785-109.925477 75.184104-204.065281 129.806988-279.712291 69.189767-95.909393 164.812041-162.093202 266.668895-196.600192m391.823386 807.249108l-0.105472-1.664117c-2.84775-60.376978-13.189885-181.212969-50.585642-311.623492-65.644729-228.681322-180.199264-374.156792-340.517018-432.348152l-0.591816-0.205085-0.603536 0.205085c-159.813831 58.080028-274.274612 203.033997-340.106847 430.906698-39.165346 135.590381-48.616827 264.119983-50.972374 313.164559l-0.105472 1.658257 1.476611 0.210945c69.476886 10.699569 246.523703 46.542541 389.221738 147.959926l0.884795 0.732446 0.990267-0.732446c142.897261-101.417386 319.944078-137.260357 389.426823-148.071258l1.587943-0.193366zM675.692864 533.328311l-210.69831-227.691055-121.867275 106.761311a34.688637 34.688637 0 0 1-22.389406 8.203394 34.366361 34.366361 0 0 1-26.245-12.058989c-12.305091-14.414535-10.664412-36.335175 3.873174-48.640266l149.641622-130.539433c6.099809-5.162279 14.531726-8.203394 22.975362-8.203394 1.054722 0 2.097725 0 3.158307 0.123051a34.51285 34.51285 0 0 1 23.795701 13.348093l232.835755 256.637316a33.932753 33.932753 0 0 1 6.685766 25.541853c-1.166054 9.146784-5.976758 17.227127-13.242622 22.852311-15.363785 11.713274-37.038323 8.783491-48.523074-6.334192z"  horiz-adv-x="1024" />

    
    <glyph glyph-name="table" unicode="&#58899;" d="M64 800v-832h896v832H64z m608-208H896V448h-224V592z m-320-560H128v147.2h224v-147.2z m0 211.2H128V384h224v-140.8z m0 204.8H128V592h224V448z m256-416h-192v147.2h192v-147.2z m0 211.2h-192V384h192v-140.8z m0 204.8h-192V592h192V448z m288-416h-224v147.2H896v-147.2z m0 211.2h-224V384H896v-140.8z"  horiz-adv-x="1024" />

    
    <glyph glyph-name="article" unicode="&#59005;" d="M661.648 778H249.104c-39.088 0-70.304-31.752-70.304-70.304v-647.392c0-39.096 31.752-70.304 70.304-70.304h525.8c38.552 0 70.296 31.752 70.296 70.304V594.44L661.648 778z m12.664-74.704l96.176-96.184H684.584c-5.408 0-10.272 4.864-10.272 10.272V703.296z m126.928-642.992a26.24 26.24 0 0 0-26.344-26.352H249.104a26.24 26.24 0 0 0-26.344 26.352V707.696a26.24 26.24 0 0 0 26.344 26.344v0.464h381.328v-117.192c0-29.824 24.416-54.16 54.16-54.16h116.656v-502.848zM348.68 509.928h188.968a21.84 21.84 0 0 1 21.944 21.936 21.84 21.84 0 0 1-21.944 21.944H348.68a21.832 21.832 0 0 1-21.944-21.944 21.84 21.84 0 0 1 21.944-21.936zM674.848 251.20000000000005H348.68c-12.208 0-21.944-9.744-21.944-21.944s9.736-21.944 21.944-21.944h326.168c12.208 0 21.944 9.744 21.944 21.944S687.064 251.20000000000005 674.848 251.20000000000005zM348.68 400.144a21.824 21.824 0 0 1-21.944-21.944 21.832 21.832 0 0 1 21.944-21.936h326.168a21.832 21.832 0 0 1 21.944 21.936 21.832 21.832 0 0 1-21.944 21.944H348.68z"  horiz-adv-x="1024" />

    
    <glyph glyph-name="link" unicode="&#58933;" d="M506.092308 224.64984600000003a153.127385 153.127385 0 0 0-106.732308 45.686154l-74.279385 74.200615c-56.32 56.32-61.046154 143.202462-10.633846 193.61477L632.753231 856.457846c50.412308 50.491077 137.137231 45.607385 193.614769-10.555077l74.200615-74.279384c56.32-56.32 61.046154-143.202462 10.633847-193.61477L801.319385 470.646154a39.305846 39.305846 0 0 0-55.689847 0.708923 39.305846 39.305846 0 0 0 0.630154 55.689846l109.64677 106.968615c19.062154 19.062154 14.257231 56.713846-10.948924 81.92l-74.279384 74.200616c-25.127385 25.127385-62.936615 30.089846-82.235077 10.633846L370.136615 482.461538c-19.377231-19.377231-14.493538-57.107692 10.633847-82.235076l74.279384-74.200616a74.358154 74.358154 0 0 1 46.316308-22.449231c14.414769-0.708923 27.175385 3.072 35.84 11.815385a39.384615 39.384615 0 0 0 55.689846-55.689846 120.516923 120.516923 0 0 0-86.803692-35.052308zM296.644923-125.79446199999995a152.969846 152.969846 0 0 0-106.732308 45.764924l-74.200615 74.200615a152.969846 152.969846 0 0 0-45.292308 96.019692c-2.914462 37.730462 9.452308 72.388923 34.658462 97.595077l104.920615 107.362462a39.384615 39.384615 0 0 0 56.241231-54.980923L161.004308 132.48984599999994a45.371077 45.371077 0 0 1-12.130462-36.233846c1.260308-16.699077 9.294769-33.083077 22.449231-46.316308l74.279385-74.200615c13.154462-13.233231 29.617231-21.267692 46.316307-22.449231a43.953231 43.953231 0 0 1 35.918769 11.815385l318.227693 318.227692a44.898462 44.898462 0 0 1 11.815384 35.918769 73.334154 73.334154 0 0 1-22.44923 46.237539l-74.200616 74.279384a74.043077 74.043077 0 0 1-46.316307 22.528 45.056 45.056 0 0 1-35.91877-11.815384 39.384615 39.384615 0 0 0-55.689846 55.689846c25.284923 25.284923 59.628308 37.415385 97.595077 34.658461 35.446154-2.756923 69.553231-18.825846 96.019692-45.292307l74.200616-74.279385c26.466462-26.466462 42.614154-60.573538 45.371077-96.019692 2.914462-37.730462-9.452308-72.388923-34.658462-97.595077l-318.227692-318.227692c-22.921846-22.843077-53.484308-35.131077-86.961231-35.209847z"  horiz-adv-x="1024" />

    
    <glyph glyph-name="image" unicode="&#58942;" d="M433.88386219551603 194.62754463794568c4.734311578232098-7.101466720079011 11.83577829831111-9.468623156464195 18.937245018390122-9.468623156464195 7.101466720079011 0 14.202934734696296 2.3671551418469137 18.93724631292839 9.468623156464195l94.68622768102716 125.4592509977284L767.6528148682271 52.59820246913591H197.16829234567905c-14.202934734696296 0-23.67155659662222-9.468623156464195-23.67155659662222-23.67155659662222s9.468623156464195-23.67155659662222 23.67155659662222-23.67155789116049H772.3871264464593c40.24164647316543 0 71.01467108440494 30.773024611239506 71.01467108440494 71.01467108440494V549.700898765432c0 40.24164647316543-30.773024611239506 71.01467108440494-71.01467108440494 71.01467108440494H133.2550879813532c-40.24164647316543 0-71.01467108440494-30.773024611239506-71.01466978986667-71.01467108440494v-475.798294841521c0-9.468623156464195 7.101466720079011-18.937245018390122 16.57008987654321-23.67155659662222 9.468623156464195-2.3671551418469137 21.304401454775306 2.3671551418469137 26.038711738469132 9.468621861925925L301.3231431831704 384l132.5607190123457-189.37245536205432z m-151.49796532527407 248.55134814814815l-170.43520904912594-284.05868433761975V549.700898765432c0 14.202934734696296 9.468623156464195 23.67155659662222 23.67155659662222 23.67155659662222h639.1320384651062c14.202934734696296 0 23.67155659662222-9.468623156464195 23.67155659662222-23.67155659662222v-456.8610498231309l-210.6768568168296 279.3243727593876c-4.734311578232098 7.101466720079011-11.83577829831111 9.468623156464195-18.93724631292839 9.468623156464195-7.101466720079011 0-14.202934734696296-2.3671551418469137-18.937245018390122-9.468623156464195l-94.68622768102716-123.09209585588148-132.5607190123457 196.47392208213333c-4.734311578232098 7.101466720079011-11.83577829831111 9.468623156464195-21.304401454775306 9.468623156464195-7.101466720079011 0-14.202934734696296-4.734311578232098-18.93724631292839-11.83577829831111zM886.0106004404147 741.4405105638716h-639.1320384651062c-14.202934734696296 0-23.67155659662222-9.468623156464195-23.67155659662222-23.67155789116049s9.468623156464195-23.67155659662222 23.67155659662222-23.67155659662222h639.1320384651062c14.202934734696296 0 23.67155659662222-9.468623156464195 23.67155659662222-23.67155659662222V194.62754463794568c0-14.202934734696296 9.468623156464195-23.67155659662222 23.67155659662222-23.67155789116049s23.67155659662222 9.468623156464195 23.67155789116049 23.67155789116049V670.4258394794667c0 37.87449133131852-30.773024611239506 71.01467108440494-71.01467108440494 71.01467108440494z"  horiz-adv-x="1024" />

    
    <glyph glyph-name="notice" unicode="&#58959;" d="M946.653 867.893c-42.716 0-77.341-34.625-77.341-77.341v-24.033L506.604 616.24v2.438H156.746c-28.738 0-52.039-23.3-52.039-52.048v-30.957H33.38c-18.429 0-33.374-14.945-33.374-33.383v-224.347c0-18.438 14.945-33.383 33.374-33.383h71.327v-27.785c0-28.738 23.3-52.038 52.039-52.038h76.038a193.625 193.625 0 0 1-3.555-52.049c8.119-121.193 124.21-212.582 270.04-212.582 7.549 0 15.21 0.255 22.781 0.765 72.186 4.834 138.952 32.165 187.998 76.943 28.062 25.615 48.608 55.231 60.914 87.062l98.351-37.161v-38.032c0-42.721 34.625-77.341 77.341-77.341s77.341 34.62 77.341 77.341V790.552c-0.001 42.716-34.626 77.341-77.342 77.341zM656.108 36.89599999999996c-35.724-32.616-85.231-52.575-139.432-56.205-5.757-0.388-11.614-0.584-17.408-0.584-52.661 0-101.377 15.521-137.177 43.703-16.089 12.665-28.843 27.315-37.906 43.544-8.852 15.849-13.944 32.9-15.135 50.685a114.075 114.075 0 0 0 2.096 30.593 79.977 79.977 0 0 1 1.633 16.113l193.826 0.017 189.51-71.604c-7.997-20.394-21.448-39.32-40.007-56.262z m287.886 19.511c-8.027 20.881-24.643 37.922-46.405 46.145l-98.351 37.161L512 244.73800000000006H184.707c-0.096 44.101-35.876 79.823-80 79.823H80.006V455.674h24.701c44.183 0 80 35.817 80 80v3.005h302.294a80.041 80.041 0 0 1 19.609-2.438 79.935 79.935 0 0 1 30.616 6.093l362.708 150.278c20.649 8.556 36.335 25.124 44.06 45.218v-681.423z"  horiz-adv-x="1024" />

    
    <glyph glyph-name="outline" unicode="&#59167;" d="M128 800h512a64 64 0 0 0 64-64v-64a64 64 0 0 0-64-64H128a64 64 0 0 0-64 64V736a64 64 0 0 0 64 64z m32-64a32 32 0 1 1 0-64h448a32 32 0 0 1 0 64H160z m224-576h512a64 64 0 0 0 64-64v-64a64 64 0 0 0-64-64H384a64 64 0 0 0-64 64v64a64 64 0 0 0 64 64z m32-64a32 32 0 0 1 0-64h448a32 32 0 0 1 0 64H416z m-32 384h512a64 64 0 0 0 64-64v-64a64 64 0 0 0-64-64H384a64 64 0 0 0-64 64v64a64 64 0 0 0 64 64z m32-64a32 32 0 0 1 0-64h448a32 32 0 0 1 0 64H416z"  horiz-adv-x="1024" />

    
    <glyph glyph-name="password" unicode="&#59110;" d="M864 512h-64V608c0 160-128 288-288 288S224 768 224 608v-96H160c-89.6 0-160-70.4-160-160v-320c0-89.6 70.4-160 160-160h704c89.6 0 160 70.4 160 160V352c0 89.6-70.4 160-160 160zM288 608c0 124.8 99.2 224 224 224s224-99.2 224-224v-96H288V608z m672-576c0-54.4-41.6-96-96-96H160c-51.2 0-96 41.6-96 96V352c0 54.4 44.8 96 96 96h704c54.4 0 96-41.6 96-96v-320zM608 256c0-41.6-25.6-76.8-64-89.6V64c0-16-16-32-32-32s-32 16-32 32v102.4c-38.4 12.8-64 48-64 89.6 0 54.4 41.6 96 96 96s96-41.6 96-96z"  horiz-adv-x="1024" />

    
    <glyph glyph-name="comment" unicode="&#58979;" d="M711.1 603.5V731.7H89v-494.2h128v-128.3l397.6 0.5 73.5-73.4 73.5 73 173.4-0.1V603.5H711.1zM135 283.5V685.7h530.1v-82.2H217v-320h-82z m754-128.3l-146.3 0.1-54.5-54.1-54.6 54.5-370.6-0.5V557.5h626v-402.3zM336.1 379.4h96v-46h-96zM528 379.4h96v-46h-96zM722.7 379.4h96v-46h-96z"  horiz-adv-x="1024" />

    
    <glyph glyph-name="relation" unicode="&#58882;" d="M948.926291 390.526793a115.280303 115.280303 0 0 1-115.920038-28.020407l-77.10943 27.167426c7.762122 47.212466-9.809275 94.126389-45.71975 126.027856l33.180938 62.480816c78.303602-21.111265 164.326677 11.643183 203.179935 81.587576 43.928491 79.412476 10.150467 177.121383-75.275522 217.936496-85.468637 40.772464-190.641122 9.382785-234.569613-69.944394-37.061999-66.660419-19.14941-146.286141 38.256171-194.351587l-32.882395-62.182272c-66.020684 16.377224-134.770905-9.681328-170.596082-61.329292l-82.483206 29.427824c16.718416 87.174598-37.659085 174.860985-130.889845 204.032915C155.611858 755.261217 44.767053 703.911796 10.434592 608.4206389999999c-34.375111-95.192614 20.89802-198.189999 123.682159-230.091466 84.274465-26.101201 174.221249 3.838412 222.627888 68.238433l89.648242-31.602924c-1.194173-46.060942 21.79365-89.989434 60.988099-118.00984l-74.123998-140.144682c-70.797374 19.959742-149.100976-9.468083-184.371716-72.759229-39.450344-71.309163-9.254837-159.038198 67.5134-195.97225 76.768237-36.635509 171.235818-8.572453 210.984705 62.736709 31.645573 56.936443 18.509675 124.364544-26.868883 167.951843l79.156582 149.612765c53.481872-7.250334 106.622552 11.941726 141.040311 49.430215l83.63473-29.427825c2.388345-40.815113 30.792593-77.749165 74.721084-91.610096 57.362933-17.784642 119.843748 11.088745 138.950509 64.400021 19.405304 53.56717-11.387289 111.569838-69.048764 129.35448z"  horiz-adv-x="1024" />

    
    <glyph glyph-name="trash" unicode="&#59011;" d="M736.1 10H286V523.2h-84V-74h618.1V523.2h-84zM651.3 693.4V821H373.8v-127.6H98v-84h830v84H651.3zM457.8 737h109.5v-43.6H457.8V737zM373.8 523h84v-408.6h-84zM567.3 523.2h84v-408.5h-84z"  horiz-adv-x="1024" />

    
    <glyph glyph-name="folder-colorful" unicode="&#59089;" d="M1162.378378 766.846847h-581.189189l-129.153153 129.153153h-322.882883c-73.801802 0-129.153153-55.351351-129.153153-129.153153v-258.306306h1291.531532V646.918919c0 64.576577-55.351351 119.927928-129.153154 119.927928zM1162.378378 766.846847h-1033.225225c-73.801802 0-129.153153-55.351351-129.153153-129.153153v-636.540541c0-73.801802 55.351351-129.153153 129.153153-129.153153h1033.225225c73.801802 0 129.153153 55.351351 129.153154 129.153153v645.765766c0 64.576577-55.351351 119.927928-129.153154 119.927928z"  horiz-adv-x="1303" />

    
    <glyph glyph-name="data" unicode="&#59028;" d="M906.666667-42.66666699999996h-789.333334A32 32 0 0 0 85.333333-10.666666999999961v789.333334a32 32 0 0 0 64 0V21.33333300000004h757.333334a32 32 0 0 0 0-64zM853.333333 64h-64a42.666667 42.666667 0 0 0-42.666666 42.666667V576a42.666667 42.666667 0 0 0 42.666666 42.666667h64a42.666667 42.666667 0 0 0 42.666667-42.666667v-469.333333a42.666667 42.666667 0 0 0-42.666667-42.666667z m-256 0h-64a42.666667 42.666667 0 0 0-42.666666 42.666667V490.666667a42.666667 42.666667 0 0 0 42.666666 42.666666h64a42.666667 42.666667 0 0 0 42.666667-42.666666v-384a42.666667 42.666667 0 0 0-42.666667-42.666667z m-256 0h-64a42.666667 42.666667 0 0 0-42.666666 42.666667V661.333333a42.666667 42.666667 0 0 0 42.666666 42.666667h64a42.666667 42.666667 0 0 0 42.666667-42.666667v-554.666666a42.666667 42.666667 0 0 0-42.666667-42.666667z"  horiz-adv-x="1024" />

    
    <glyph glyph-name="file-colorful" unicode="&#58924;" d="M967.111111 668.444444v-512a56.888889 56.888889 0 0 0-56.888889-56.888888h-113.777778V507.562667a113.777778 113.777778 0 0 1-33.336888 80.440889l-103.992889 103.992888A113.777778 113.777778 0 0 1 578.673778 725.333333H284.444444V839.111111a56.888889 56.888889 0 0 0 56.888889 56.888889h398.222223v-113.777778a113.777778 113.777778 0 0 1 113.777777-113.777778h113.777778z m0 56.888889h-113.777778a56.888889 56.888889 0 0 0-56.888889 56.888889V896l170.666667-170.666667zM512 668.444444v-113.777777a113.777778 113.777778 0 0 1 113.777778-113.777778h113.777778v-512a56.888889 56.888889 0 0 0-56.888889-56.888889H113.777778a56.888889 56.888889 0 0 0-56.888889 56.888889V611.555556a56.888889 56.888889 0 0 0 56.888889 56.888888h398.222222z m-256-512a28.444444 28.444444 0 1 1 0-56.888888h284.444444a28.444444 28.444444 0 1 1 0 56.888888h-284.444444z m0 170.666667a28.444444 28.444444 0 1 1 0-56.888889h284.444444a28.444444 28.444444 0 1 1 0 56.888889h-284.444444z m0 170.666667a28.444444 28.444444 0 0 1 0-56.888889h113.777778a28.444444 28.444444 0 0 1 0 56.888889h-113.777778zM739.555556 497.777778h-113.777778a56.888889 56.888889 0 0 0-56.888889 56.888889V668.444444l170.666667-170.666666z"  horiz-adv-x="1024" />

    
    <glyph glyph-name="brief" unicode="&#58931;" d="M821.26848 891.75552V893.6704h-17.09056c-4.33152 0.30208-8.69376 0.512-13.11744 0.51712H232.94464C127.36 894.05952 41.74336 808.4428800000001 41.61536 702.85824v-637.7216c0.128-105.57952 85.74464-191.20128 191.32928-191.32928h77.30176a31.98464 31.98464 0 0 1 31.99488 31.872c0 17.65888-14.336 31.872-31.86688 31.872H233.07264c-70.51776 0.128-127.46752 57.20064-127.60064 127.5904V702.85824c0.128 70.51264 57.21088 127.46752 127.60064 127.5904H453.5808v-404.02944l183.13728 140.77952 184.55552-140.01152V826.66496c55.85408-13.64992 97.27488-63.83104 97.38752-123.8016v-316.48768c0-17.65888 14.336-31.872 31.87712-31.872a31.86176 31.86176 0 0 1 31.85664 31.872V702.85824c-0.12288 95.30368-69.89312 174.31552-161.1264 188.89728zM757.6576 555.4278400000001L675.36896 617.8815999999999l-38.77376 29.43488-38.51776-29.69088-80.63488-61.94176V829.94176h240.22016v-274.51392zM950.528-61.301759999999945H467.39968c-17.65888 0-31.86688-14.208-31.86688-31.872s14.336-31.872 31.86688-31.872h483.12832c3.712 0 4.73088-0.38912 10.86464 1.92a31.88224 31.88224 0 0 1-10.86464 61.824zM467.39968 206.94016h483.12832a31.872 31.872 0 0 1 27.50976 15.872 32.17408 32.17408 0 0 1 0 31.872 31.72352 31.72352 0 0 1-27.50976 16H467.39968c-17.65888 0-31.86688-14.208-31.86688-31.872s14.336-31.872 31.86688-31.872zM467.39968 40.94975999999997h483.12832a31.62112 31.62112 0 0 1 27.50976 15.872 32.17408 32.17408 0 0 1 0 31.872 31.72352 31.72352 0 0 1-27.50976 16H467.39968a31.87712 31.87712 0 0 1 0-63.744z"  horiz-adv-x="1024" />

    
    <glyph glyph-name="direction-right" unicode="&#58939;" d="M740.07331363 754.66497779c13.09501624 0 24.03945947-4.38766503 32.96928381-13.39164711l324.44000245-324.316406C1106.41860453 407.94676232 1110.84952799 397.0023191 1110.84952799 384c0-13.1320951-4.43092346-24.07653833-13.3669281-32.95692468l-324.44000245-324.44000244c-8.93600464-9.01634193-19.87426758-13.3916471-32.96928381-13.3916471-13.2618711 0-24.34844947 4.37530518-33.11759996 13.1320951-8.80622864 8.88656592-13.22479224 19.96078515-13.22479225 33.21647668 0 13.0023191 4.48036218 23.94676232 13.37928796 32.95692467L952.66494265 337.65142822999996H230.24520364c-12.79220581 0-23.69338989 4.51126075-32.77153038 13.5214231C188.40789262 360.30661010999995 183.87809244 371.12127662 183.87809244 384c0 12.74894738 4.52980018 23.68721032 13.59558082 32.70355224C206.55799333 425.83731103 217.45917741 430.34857177 230.23902408 430.34857177h722.42591857L707.11020938 675.48307777c-8.89892578 8.88038635-13.37928796 19.95460487-13.37928796 32.95692467 0 13.2618711 4.4185636 24.33609033 13.22479225 33.08670068C715.72486344 750.4132690399999 726.81144182 754.78857422 740.07331363 754.78857422v-0.12359643z"  horiz-adv-x="1280" />

    
    <glyph glyph-name="direction-left" unicode="&#58945;" d="M554.64194766 754.78857422c12.79220581 0 23.71810889-4.50508117 32.77152968-13.64501953 9.05960107-9.01016235 13.59558082-19.95460487 13.59558153-32.6911924 0-13.1320951-4.57305932-24.07653833-13.76861596-32.95692466l-245.12832642-245.09124757h722.35794044c12.79838538 0 23.69338989-4.50508117 32.81478882-13.64501953 9.02252221-9.01016235 13.56468224-19.94842529 13.56468224-32.69119239 0-12.87872338-4.54216003-23.81698632-13.57086182-32.82714867-9.11521935-9.01016235-20.01022315-13.51524353-32.80242896-13.51524353H342.11829606l245.12214685-245.09124756c9.19555664-9.01016235 13.76861596-19.95460487 13.76861596-32.9507444 0-12.8725431-4.53598046-23.81698632-13.59558153-32.82714867-9.05342078-9.13993836-19.98550415-13.64501953-32.77152968-13.64501953-13.05175781 0-24.03945947 4.50508117-32.95692467 13.38546753L197.2573804 350.98127747C188.34609476 360.37458825 183.87809244 371.45498633 183.87809244 383.93820214000004c0 12.60681153 4.46800232 23.55125404 13.37928796 32.95074439l324.42764259 324.37820459C530.8620402 750.15371704 541.84356156 754.66497779 554.64194766 754.66497779V754.78857422z"  horiz-adv-x="1280" />

    
    <glyph glyph-name="volume" unicode="&#59206;" d="M742.4-25.600000000000023h-512a25.6 25.6 0 0 0 0 51.2h512a25.6 25.6 0 0 0 0-51.2zM844.8 742.4a25.6 25.6 0 0 1-25.6-25.6v-768a25.6 25.6 0 0 0-25.6-25.6h-563.2c-42.3424 0-76.8 34.4576-76.8 76.8S188.0576 76.79999999999995 230.4 76.79999999999995h460.8c42.3424 0 76.8 34.4576 76.8 76.8v614.4c0 42.3424-34.4576 76.8-76.8 76.8h-512C136.8576 844.8 102.4 810.3424 102.4 768v-768C102.4-70.55359999999996 159.8464-128 230.4-128h563.2c42.3424 0 76.8 34.4576 76.8 76.8v768a25.6 25.6 0 0 1-25.6 25.6z m-665.6 51.2h512a25.6 25.6 0 0 0 25.6-25.6v-614.4a25.6 25.6 0 0 0-25.6-25.6h-460.8c-28.7744 0-55.3984-9.5744-76.8-25.6512V768a25.6 25.6 0 0 0 25.6 25.6z"  horiz-adv-x="1024" />

    
    <glyph glyph-name="file" unicode="&#59107;" d="M853.333 42.66700000000003h-68.266v68.266h68.266c8.534 0 17.067 8.534 17.067 17.067V768c0 8.533-8.533 17.067-17.067 17.067H256c-8.533 0-17.067-8.534-17.067-17.067v-55.467h-68.266V768c0 46.933 38.4 85.333 85.333 85.333h597.333c46.934 0 85.334-38.4 85.334-85.333v-640c0-46.933-38.4-85.333-85.334-85.333zM128 657.067c-8.533 0-17.067-8.534-17.067-17.067v-640c0-8.533 8.534-17.067 17.067-17.067h597.333c8.534 0 17.067 8.534 17.067 17.067V640c0 8.533-8.533 17.067-17.067 17.067H128z m0 68.266h597.333c46.934 0 85.334-38.4 85.334-85.333v-640c0-46.933-38.4-85.333-85.334-85.333H128c-46.933 0-85.333 38.4-85.333 85.333V640c0 46.933 38.4 85.333 85.333 85.333zM196.267 499.2c-17.067 0-34.134 17.067-34.134 34.133s17.067 34.134 34.134 34.134h460.8c17.066 0 34.133-17.067 34.133-34.134S674.133 499.2 657.067 499.2h-460.8z m0-213.333c-17.067 0-34.134 17.066-34.134 34.133s17.067 34.133 34.134 34.133h460.8c17.066 0 34.133-17.066 34.133-34.133s-17.067-34.133-34.133-34.133h-460.8z m0-213.334c-17.067 0-34.134 17.067-34.134 34.134S179.2 140.79999999999995 196.267 140.79999999999995H512c17.067 0 34.133-17.067 34.133-34.133S529.067 72.53300000000002 512 72.53300000000002H196.267z"  horiz-adv-x="1024" />

    
    <glyph glyph-name="list" unicode="&#58917;" d="M164.3 689.6c-29.8 0-54-24.2-54-54s24.2-54 54-54 54 24.2 54 54-24.2 54-54 54zM353.2 595.6h525c20.7 0 37.5 17.9 37.5 40s-16.8 40-37.5 40h-525c-20.7 0-37.5-17.9-37.5-40s16.8-40 37.5-40zM164.3 436.8c-29.8 0-54-24.2-54-54s24.2-54 54-54 54 24.2 54 54-24.2 54-54 54zM878.2 422.8h-525c-20.7 0-37.5-17.9-37.5-40s16.8-40 37.5-40h525c20.7 0 37.5 17.9 37.5 40s-16.8 40-37.5 40zM164.3 184c-29.8 0-54-24.2-54-54s24.2-54 54-54 54 24.2 54 54-24.2 54-54 54zM878.2 170h-525c-20.7 0-37.5-17.9-37.5-40s16.8-40 37.5-40h525c20.7 0 37.5 17.9 37.5 40s-16.8 40-37.5 40z"  horiz-adv-x="1024" />

    
    <glyph glyph-name="application" unicode="&#58993;" d="M349.265367 844.313843c19.446277 0 35.822089-6.652674 49.639181-19.958021 13.817091-13.305347 20.469765-29.681159 20.469765-49.127436v-277.877062c0-19.446277-6.652674-35.822089-20.469765-49.63918-13.817091-13.817091-30.192904-20.469765-49.639181-20.469765H71.90005c-19.446277 0-35.310345 6.652674-49.127436 20.469765C9.467266 461.529235 2.814593 477.905047 2.814593 497.351324V775.74013c0 19.446277 6.652674 35.310345 19.958021 49.127436S52.453773 844.825587 71.90005 844.825587l277.365317-0.511744z m0-555.242379c19.446277 0 35.822089-6.652674 49.639181-19.958021 13.817091-13.305347 20.469765-29.681159 20.469765-49.127436v-278.90055c0-19.446277-6.652674-35.310345-20.469765-49.127436-13.817091-13.305347-30.192904-19.958021-49.639181-19.958021H71.90005c-19.446277 0-35.310345 6.652674-49.127436 19.958021-13.305347 13.305347-19.958021 29.681159-19.958021 49.127436v278.90055c0 19.446277 6.652674 35.310345 19.958021 49.127436 13.305347 13.305347 29.681159 19.958021 49.127436 19.958021h277.365317z m556.777612 0c19.446277 0 35.310345-6.652674 49.127436-19.958021 13.305347-13.305347 19.958021-29.681159 19.958021-49.127436v-278.90055c0-19.446277-6.652674-35.310345-19.958021-49.127436-13.305347-13.305347-29.681159-19.958021-49.127436-19.958021h-277.877062c-19.446277 0-35.822089 6.652674-49.63918 19.958021-13.817091 13.305347-20.469765 29.681159-20.469765 49.127436v278.90055c0 19.446277 6.652674 35.310345 20.469765 49.127436 13.817091 13.305347 30.192904 19.958021 49.63918 19.958021H906.042979zM1000.715642 686.184908c13.817091-13.817091 20.469765-29.681159 20.469765-48.103948s-6.652674-34.286857-20.469765-47.08046l-190.368815-190.368816c-13.817091-13.817091-29.681159-20.469765-47.592204-20.469765-17.911044 0-33.775112 6.652674-47.592204 20.469765l-190.368816 190.368816c-12.793603 12.793603-19.446277 28.657671-19.446277 47.08046 0 18.422789 6.652674 34.286857 19.446277 48.103948l190.368816 190.368815c13.817091 12.793603 29.681159 19.446277 47.592204 19.446277 17.911044 0 33.775112-6.652674 47.592204-19.446277L1000.715642 686.184908z"  horiz-adv-x="1024" />

    
    <glyph glyph-name="folder" unicode="&#58971;" d="M989.541-44.66700000000003H130.618s-68.409-10.642-68.409 80.572V773.211s1.521 82.091 85.132 82.091h301.003s36.486 7.601 66.89-39.525c28.884-45.607 45.607-74.491 45.607-74.491s10.642-12.161 34.965-12.161h387.655s68.409 7.601 68.409-68.409v-629.371s10.642-76.012-62.33-76.012z m-63.849 577.683c0 18.243-15.202 33.445-33.445 33.445H223.351c-19.763 0-34.965-15.203-34.965-33.445v-3.04c0-19.763 15.202-34.965 34.965-34.965h668.896c18.243 0 33.445 15.203 33.445 34.965v3.04z"  horiz-adv-x="1127" />

    
    <glyph glyph-name="baseset" unicode="&#58976;" d="M463.872 752.1279999999999H160.256c-8.704 0-15.872-7.168-15.872-15.872v-304.128c0-8.704 7.168-15.872 15.872-15.872h304.128c8.704 0 15.872 7.168 15.872 15.872V735.744c0 9.216-7.68 16.384-16.384 16.384zM412.16 483.84H211.968V684.032h200.192v-200.192z m452.096 268.288h-304.128c-8.704 0-15.872-7.168-15.872-15.872v-304.128c0-8.704 7.168-15.872 15.872-15.872h304.128c8.704 0 15.872 7.168 15.872 15.872V735.744c0 9.216-7.168 16.384-15.872 16.384z m-52.224-268.288h-200.192V684.032h200.192v-200.192z m-348.16-132.096H160.256c-8.704 0-15.872-7.168-15.872-15.872v-304.128c0-8.704 7.168-15.872 15.872-15.872h304.128c8.704 0 15.872 7.168 15.872 15.872v304.128c0 8.704-7.68 15.872-16.384 15.872z m-51.712-267.776H211.968v200.192h200.192v-200.192z m452.096 267.776h-304.128c-8.704 0-15.872-7.168-15.872-15.872v-304.128c0-8.704 7.168-15.872 15.872-15.872h304.128c8.704 0 15.872 7.168 15.872 15.872v304.128c0 8.704-7.168 15.872-15.872 15.872z"  horiz-adv-x="1024" />

    
    <glyph glyph-name="dropdown" unicode="&#58888;" d="M755.342 462.11L537.778 224.20000000000005a34.238 34.238 0 0 0-25.718-11.637 34.238 34.238 0 0 0-25.72 11.637L268.777 462.11c-10.621 11.218-13.903 27.568-8.414 42.009s18.737 24.525 34.133 25.897h434.949c15.455-1.313 28.761-11.337 34.251-25.838 5.55-14.5 2.268-30.79-8.354-42.068z"  horiz-adv-x="1024" />

    
    <glyph glyph-name="message-info" unicode="&#58881;" d="M512 822.9888c242.0736 0 439.0912-196.9152 439.0912-439.0912S754.0736-55.09119999999996 512-55.09119999999996 73.0112 141.92639999999994 73.0112 384 269.9264 822.9888 512 822.9888M512 885.76C234.9056 885.76 10.24 661.0944 10.24 384s224.6656-501.76 501.76-501.76 501.76 224.6656 501.76 501.76S789.0944 885.76 512 885.76zM563.2 619.52c0-16.896-13.824-30.72-30.72-30.72h-40.96c-16.896 0-30.72 13.824-30.72 30.72v40.96c0 16.896 13.824 30.72 30.72 30.72h40.96c16.896 0 30.72-13.824 30.72-30.72v-40.96zM460.8 506.88h102.4v-450.56H460.8zM389.12 506.88h122.88v-61.44H389.12zM389.12 117.75999999999999h245.76v-61.44H389.12z"  horiz-adv-x="1024" />

    
    <glyph glyph-name="message-warning" unicode="&#58883;" d="M512 822.9888c242.0736 0 439.0912-196.9152 439.0912-439.0912S754.0736-55.09119999999996 512-55.09119999999996 73.0112 141.92639999999994 73.0112 384 269.9264 822.9888 512 822.9888M512 885.76C234.9056 885.76 10.24 661.0944 10.24 384s224.6656-501.76 501.76-501.76 501.76 224.6656 501.76 501.76S789.0944 885.76 512 885.76zM564.736 308.32640000000004c-0.8192-16.896-15.2576-30.72-32.1536-30.72h-40.96c-16.896 0-31.3344 13.824-32.1536 30.72l-17.6128 365.9776c-0.8192 16.896 12.3904 30.72 29.2864 30.72h81.92c16.896 0 30.1056-13.824 29.2864-30.72l-17.6128-365.9776zM563.2 107.51999999999998c0-16.896-13.824-30.72-30.72-30.72h-40.96c-16.896 0-30.72 13.824-30.72 30.72v40.96c0 16.896 13.824 30.72 30.72 30.72h40.96c16.896 0 30.72-13.824 30.72-30.72v-40.96z"  horiz-adv-x="1024" />

    
    <glyph glyph-name="message-correct" unicode="&#58884;" d="M512 822.9888c242.0736 0 439.0912-196.9152 439.0912-439.0912S754.0736-55.09119999999996 512-55.09119999999996 73.0112 141.92639999999994 73.0112 384 269.9264 822.9888 512 822.9888M512 885.76C234.9056 885.76 10.24 661.0944 10.24 384s224.6656-501.76 501.76-501.76 501.76 224.6656 501.76 501.76S789.0944 885.76 512 885.76zM473.088 109.77279999999996l-33.3824 51.9168c-0.2048 0.3072-28.5696 37.1712-103.2192 111.7184-76.9024 76.9024-127.1808 105.3696-127.488 105.6768 32.4608 18.0224 58.4704 42.5984 77.2096 74.5472 1.536-1.4336 30.6176-44.6464 108.3392-122.368 33.28-33.28 57.856-59.4944 75.3664-78.848 28.4672 38.8096 71.0656 96.256 102.1952 135.8848 50.3808 64.1024 179.712 224.1536 185.2416 230.1952 12.8-34.2016 43.2128-60.0064 72.3968-72.2944-1.4336-1.4336-144.6912-146.6368-193.3312-208.4864-49.0496-62.3616-130.1504-174.1824-130.8672-175.3088l-32.4608-52.6336z"  horiz-adv-x="1024" />

    
    <glyph glyph-name="message-error" unicode="&#58885;" d="M512 822.9888c242.0736 0 439.0912-196.9152 439.0912-439.0912S754.0736-55.09119999999996 512-55.09119999999996 73.0112 141.92639999999994 73.0112 384 269.9264 822.9888 512 822.9888M512 885.76C234.9056 885.76 10.24 661.0944 10.24 384s224.6656-501.76 501.76-501.76 501.76 224.6656 501.76 501.76S789.0944 885.76 512 885.76zM773.5296 573.0304l-72.4992 72.4992L512 456.3968 322.9696 645.5296l-72.4992-72.4992L439.6032 384 250.4704 194.9696l72.4992-72.4992L512 311.6032l189.0304-189.1328 72.4992 72.4992L584.3968 384z"  horiz-adv-x="1024" />

    
    <glyph glyph-name="message-notice" unicode="&#58887;" d="M512 822.9888c242.0736 0 439.0912-196.9152 439.0912-439.0912S754.0736-55.09119999999996 512-55.09119999999996 73.0112 141.92639999999994 73.0112 384 269.9264 822.9888 512 822.9888M512 885.76C234.9056 885.76 10.24 661.0944 10.24 384s224.6656-501.76 501.76-501.76 501.76 224.6656 501.76 501.76S789.0944 885.76 512 885.76zM742.0928 691.2c-25.6 0-46.3872-22.016-46.3872-49.0496v-15.2576L478.1056 531.456v1.536h-209.92c-17.2032 0-31.232-14.7456-31.232-33.0752v-19.6608h-42.8032c-11.0592 0-20.0704-9.5232-20.0704-21.1968v-142.4384c0-11.6736 9.0112-21.1968 20.0704-21.1968h42.8032v-17.6128c0-18.2272 14.0288-33.0752 31.232-33.0752h45.6704c-2.1504-10.8544-2.8672-22.016-2.1504-33.0752C316.5184 134.75840000000005 386.1504 76.79999999999995 473.6 76.79999999999995c4.5056 0 9.1136 0.2048 13.6192 0.512 43.3152 3.072 83.3536 20.3776 112.8448 48.8448 16.7936 16.2816 29.184 35.0208 36.5568 55.296l58.9824-23.552v-24.1664c0-27.136 20.7872-49.0496 46.3872-49.0496 25.6 0 46.3872 22.016 46.3872 49.0496V642.048c0.1024 27.136-20.6848 49.152-46.2848 49.152zM567.7056 163.63520000000005c-21.4016-20.6848-51.0976-33.3824-83.6608-35.6352-3.4816-0.2048-6.9632-0.4096-10.4448-0.4096-31.6416 0-60.8256 9.8304-82.3296 27.7504-9.6256 8.0896-17.3056 17.3056-22.7328 27.648-5.3248 10.0352-8.3968 20.8896-9.1136 32.1536-0.4096 6.5536 0 13.0048 1.2288 19.456 0.6144 3.3792 1.024 6.7584 1.024 10.24h116.3264l113.664-45.4656c-4.7104-13.0048-12.8-24.9856-23.9616-35.7376z m172.7488 12.3904c-4.8128 13.2096-14.7456 24.064-27.8528 29.2864l-58.9824 23.552L481.28 295.52639999999997H284.8768c-0.1024 27.9552-21.504 50.688-48.0256 50.688h-14.848v83.2512h14.848c26.5216 0 48.0256 22.7328 48.0256 50.7904v1.9456h181.3504c3.8912-1.024 7.7824-1.536 11.776-1.536 6.3488 0 12.5952 1.3312 18.3296 3.8912l217.6 95.4368c12.3904 5.4272 21.8112 15.9744 26.4192 28.672l0.1024-432.64z"  horiz-adv-x="1024" />

    
    <glyph glyph-name="search" unicode="&#58987;" d="M933.7 87.70000000000005L692.6 328.9c6.7 11.7 12.7 23.8 18 36.3C728.1 406.6 737 450.7 737 496s-8.9 89.3-26.4 130.8c-16.9 40-41.1 75.9-72 106.8s-66.8 55.1-106.8 72C490.4 823.1 446.3 832 401 832s-89.3-8.9-130.8-26.4c-40-16.9-75.9-41.1-106.8-72s-55.1-66.8-72-106.8C73.9 585.3 65 541.3 65 496s8.9-89.3 26.4-130.8c16.9-40 41.1-75.9 72-106.8s66.8-55.1 106.8-72C311.7 168.89999999999998 355.7 160 401 160s89.3 8.9 130.8 26.4c12.5 5.3 24.6 11.3 36.3 18l241.2-241.2c34.2-34.2 90.2-34.2 124.5 0 34.2 34.3 34.2 90.3-0.1 124.5zM401 240c-141.2 0-256 114.8-256 256s114.8 256 256 256 256-114.8 256-256-114.8-256-256-256z"  horiz-adv-x="1024" />

    
    <glyph glyph-name="user" unicode="&#58946;" d="M494.870476 388.364428c160.939766 0 291.404485 111.604041 291.404485 249.237064 0 137.664224-130.464718 249.229265-291.404485 249.229265-160.924166 0-291.412285-111.56504-291.396684-249.229265 0-137.633024 130.472518-249.237065 291.404485-249.237064zM628.455241 305.262006H385.59087c-207.888657 0-376.433535-144.122719-376.433535-321.910733v-20.779506c0-72.665868 168.544878-72.736069 376.433535-72.736069H628.455241c207.865256 0 376.402334 2.683239 376.402334 72.736069v20.771705c0 177.795814-168.521478 321.918533-376.402334 321.918534z"  horiz-adv-x="1032" />

    


  </font>
</defs>
</svg>
